<svg width="16" height="16" viewBox="0 0 16 16" fill="none" xmlns="http://www.w3.org/2000/svg">
<path d="M14.0001 7.22126V13C13.9999 13.1812 13.9508 13.3591 13.8579 13.5147C13.765 13.6703 13.6318 13.7979 13.4723 13.8839C13.3278 13.9622 13.1657 14.0021 13.0014 13.9999H9.99788C9.86527 13.9999 9.73809 13.9473 9.64433 13.8535C9.55056 13.7597 9.49788 13.6326 9.49788 13.4999V10.4995C9.49788 10.3669 9.4452 10.2397 9.35143 10.146C9.25766 10.0522 9.13049 9.99951 8.99788 9.99951H6.99788C6.86527 9.99951 6.73809 10.0522 6.64433 10.146C6.55056 10.2397 6.49788 10.3669 6.49788 10.4995V13.4999C6.49788 13.6326 6.4452 13.7597 6.35143 13.8535C6.25766 13.9473 6.13049 13.9999 5.99788 13.9999H3.00019C2.85842 14.0003 2.71822 13.9704 2.58896 13.9121C2.45971 13.8539 2.3444 13.7687 2.25075 13.6623C2.08637 13.4721 1.9972 13.2285 2.00007 12.9771V7.2212C2.00018 7.08187 2.02934 6.9441 2.0857 6.81669C2.14206 6.68927 2.22437 6.57501 2.32738 6.4812L7.32694 1.93539C7.51059 1.76717 7.75059 1.67385 7.99964 1.67383C8.24868 1.6738 8.4887 1.76708 8.67238 1.93526L13.6728 6.48126C13.7758 6.57509 13.8581 6.68935 13.9144 6.81677C13.9708 6.94418 13.9999 7.08194 14.0001 7.22126Z" fill="#1D4ED8"/>
</svg>
