<svg width="16" height="16" viewBox="0 0 16 16" fill="none" xmlns="http://www.w3.org/2000/svg">
<path d="M12.8001 4.79999H2.8001V4.39999L11.6001 3.69599V4.39999H12.8001V3.19999C12.8001 2.31999 12.0873 1.70239 11.2169 1.82639L3.1841 2.97359C2.3129 3.09839 1.6001 3.91999 1.6001 4.79999V12.8C1.6001 13.2243 1.76867 13.6313 2.06873 13.9314C2.36878 14.2314 2.77575 14.4 3.2001 14.4H12.8001C13.2244 14.4 13.6314 14.2314 13.9315 13.9314C14.2315 13.6313 14.4001 13.2243 14.4001 12.8V6.39999C14.4001 5.97564 14.2315 5.56868 13.9315 5.26862C13.6314 4.96856 13.2244 4.79999 12.8001 4.79999V4.79999ZM11.6001 10.4048C11.4425 10.4047 11.2864 10.3736 11.1408 10.3133C10.9951 10.2529 10.8628 10.1644 10.7514 10.0529C10.64 9.94141 10.5516 9.80905 10.4913 9.66339C10.431 9.51773 10.4 9.36163 10.4001 9.20399C10.4001 9.04635 10.4313 8.89027 10.4916 8.74465C10.552 8.59903 10.6405 8.46673 10.752 8.3553C10.8635 8.24387 10.9958 8.15549 11.1415 8.09521C11.2872 8.03493 11.4433 8.00394 11.6009 8.00399C11.9193 8.0041 12.2245 8.13067 12.4496 8.35586C12.6746 8.58105 12.801 8.88642 12.8009 9.20479C12.8008 9.52315 12.6742 9.82844 12.449 10.0535C12.2238 10.2785 11.9185 10.4049 11.6001 10.4048Z" fill="#047857"/>
</svg>
